<svg xmlns="http://www.w3.org/2000/svg" enable-background="new 0 0 512 512" version="1" viewBox="0 0 512 512" id="adobe-creative-cloud">
  <path fill="#FC2A31" d="M93.867,12.801h324.267c51.733,0,93.867,42.133,93.867,93.867v311.467
			c0,51.733-42.133,93.867-93.867,93.867H93.867c-51.733,0-93.867-42.133-93.867-93.867V106.668
			C0.001,54.934,42.134,12.801,93.867,12.801"></path>
  <path fill="#BC1F24" d="M98.133,34.134h315.733c42.667,0,76.8,34.133,76.8,76.8v302.933c0,42.667-34.133,76.8-76.8,76.8H98.133
			c-42.667,0-76.8-34.133-76.8-76.8V110.934C21.333,68.268,55.466,34.134,98.133,34.134"></path>
  <path fill="#FFF" d="M297.711,378.678c-47.26-3.207-134.134,13.654-168.906-28.77c-67.111-65.128-7.817-182.491,84.469-167.03
		c42.579-45.885,121.532-46.612,164.787-1.339C450.696,250.183,398.077,380.567,297.711,378.678z M198.298,186.681
		c-81.165-1.812-124.958,103.765-65.972,159.707c33.092,40.999,121.212,24.055,166.282,27.31
		c95.56,0.975,145.144-123.259,75.937-188.634c-42.122-44.111-119.064-42.346-159.552,3.136
		C209.254,187.2,203.749,186.667,198.298,186.681z M360.961,197.738c-34.218-33.489-87.497-35.423-124.263-5.429
		c7.272,3.138,13.597,7.221,19.424,11.754c70.333-47.123,149.529,48.181,89.896,108.875c-22.402,23.172-60.766,28.077-87.605,10.805
		c-10.424-5.459-46.861-44.891-56.031-53.29c-3.763-4.297-10.401-4.196-14.443-0.001c-4.084,4.532-4.084,10.858,0,14.892
		c7.697,7.431,31.608,31.887,38.848,38.848C313.673,415.124,447.732,290.251,360.961,197.738z M282.817,257.803
		c-24.671-23.791-45.737-54.337-84.021-53.29c-108.767,7.422-100.81,168.847,34.764,150.858
		c-8.387-4.936-16.132-14.299-23.508-20.769c-76.346,8.003-87.662-102.111-11.255-107.978c13.248-0.477,26.628,4.42,36.555,13.1
		c5.212,5.244,27.298,27.345,32.971,32.971C277.404,283.036,292.479,266.752,282.817,257.803z"></path>
</svg>
