<?xml version="1.0" encoding="UTF-8"?>
<svg id="Photoshop_56" data-name="Photoshop 56" xmlns="http://www.w3.org/2000/svg" width="56" height="56" version="1.1" viewBox="0 0 56 56">
  <defs>
    <style>
      .cls-1 {
        fill: #31a8ff;
      }

      .cls-1, .cls-2 {
        stroke-width: 0px;
      }

      .cls-2 {
        fill: #001e36;
      }
    </style>
  </defs>
  <path id="Path_99550" data-name="Path 99550" class="cls-2" d="M10,0h36.2c5.4,0,9.8,4.5,9.8,10.1,0,0,0,0,0,.1v35.6c0,5.7-4.5,10.2-10,10.2,0,0,0,0,0,0H10C4.5,56,0,51.5,0,45.8c0,0,0,0,0,0V10.2C0,4.6,4.3,0,9.7,0c0,0,.2,0,.2,0Z"/>
  <path id="Path_99551" data-name="Path 99551" class="cls-1" d="M12.6,39.3V14.6c0-.2,0-.4.2-.4h7.3c1.6,0,3.2.2,4.7.7,1.2.4,2.2,1,3.1,1.8.8.8,1.4,1.7,1.7,2.7.3,1,.5,2,.5,3.1,0,1.8-.4,3.6-1.4,5.1-.9,1.3-2.2,2.3-3.7,2.9-1.7.6-3.5.9-5.2.9h-2.3v7.8c0,.1,0,.3-.2.4h-4.5c-.2.2-.3,0-.3-.2ZM17.7,18.9v8.1h2.1c.9,0,1.8-.2,2.6-.4.7-.2,1.4-.7,1.9-1.3.5-.7.8-1.6.7-2.5,0-.8-.2-1.5-.5-2.2-.4-.6-1-1.1-1.6-1.4-.9-.4-1.8-.6-2.8-.5h-1.6c-.3,0-.6,0-.9.2Z"/>
  <path id="Path_99552" data-name="Path 99552" class="cls-1" d="M44.8,25.4c-.7-.4-1.5-.7-2.3-.9-.9-.2-1.7-.3-2.6-.4-.5,0-.9,0-1.4.2-.3,0-.5.2-.7.5-.2.2-.2.4-.2.7,0,.2,0,.4.2.5.3.3.6.5.9.7.5.3,1,.6,1.6.7,1.2.4,2.4,1,3.5,1.8.7.6,1.4,1.2,1.9,2,.4.8.5,1.7.5,2.5,0,1.1-.3,2.3-.9,3.3-.7.9-1.6,1.7-2.6,2.2-1.3.5-2.8.8-4.2.7-1.1,0-2.1-.2-3.1-.4-.8-.2-1.7-.4-2.4-.7-.2,0-.3-.4-.3-.5v-4.2l.2-.2h.2c.9.5,1.9,1,3,1.3.9.2,1.9.3,2.8.4.7,0,1.3-.1,1.9-.4.4-.2.7-.6.7-1.1,0-.4-.2-.7-.5-.9-.7-.5-1.5-.9-2.3-1.1-1.2-.4-2.3-1-3.3-1.8-.7-.5-1.3-1.2-1.7-2-.4-.8-.5-1.7-.5-2.5,0-1,.3-2,.9-2.9.6-1,1.4-1.8,2.4-2.2,1.3-.6,2.8-.9,4.2-.9,1,0,2,0,3,.2.7,0,1.4.3,2.1.5l.2.2v4.3l-.2.2h-.7Z"/>
</svg>